<svg xmlns="http://www.w3.org/2000/svg" id="link-icon" viewBox="0 0 252.4 252.4" width="252.4" height="252.4">
  <style>
 .st0{fill:#fff}.st1{fill:#333}
  </style>
  <g>
    <circle cx="126.2" cy="126.2" r="116.9" class="st0"/>
  </g>
  <g>
    <path d="M155.1 107.7c-1.3-2.8-2.9-5.5-4.8-8-1.3-1.8-2.7-3.4-4.3-4.9-5.5-5.5-12.3-9.5-19.9-11.6-3.7-1-7.5-1.5-11.5-1.5H72.5c-24.1 0-44.4 18.9-45.2 43-.4 12.8 4.6 24.5 13 32.9 8.1 8.1 19.2 13.1 31.4 13.1h32c1.9 0 2.7-2.4 1.2-3.6-1.5-1.2-2.9-2.5-4.3-3.9-2.7-2.7-5.1-5.7-7.1-8.8-.7-1.1-2-1.8-3.3-1.8H72.3c-14.5 0-26.7-11.4-27.1-25.8-.2-7.6 2.8-14.4 7.8-19.4 4.8-4.8 11.4-7.8 18.7-7.8h43c7.4 0 14.2 3.1 19 8 4.7 4.8 7.5 11.3 7.5 18.5 0 3.8-.8 7.4-2.3 10.7-.6 1.3.4 2.8 1.8 2.8h14.8c.9 0 1.7-.6 1.9-1.4 1.1-3.8 1.7-7.9 1.7-12.1.1-6.5-1.4-12.8-4-18.4z" class="st1"/>
    <path d="M212.1 94.8c-8.1-8.1-19.2-13.1-31.4-13.1h-31.9c-1.9 0-2.7 2.4-1.3 3.5 1.5 1.2 2.9 2.5 4.3 3.9 2.7 2.7 5.1 5.7 7.1 8.8.7 1.1 2 1.8 3.3 1.8h18.9c13.9 0 25.8 10.5 26.9 24.3 1.2 15.5-11.1 28.7-26.4 28.7h-43c-7.4 0-14.1-3.1-18.9-8-4.7-4.8-7.6-11.3-7.6-18.5 0-3.7.8-7.3 2.2-10.6.6-1.3-.4-2.8-1.8-2.8H96.7c-.9 0-1.7.6-1.9 1.4-1.1 3.8-1.6 7.8-1.6 11.9 0 6.6 1.5 12.9 4.1 18.5 1.3 2.8 2.9 5.5 4.8 8 1.3 1.8 2.7 3.4 4.3 4.9 5.5 5.5 12.3 9.5 19.9 11.5 3.7 1 7.5 1.5 11.5 1.5h43c24.5 0 44.5-20 44.5-44.5-.1-12-5.1-23.2-13.2-31.2z" class="st1"/>
  </g>
</svg>
